<svg id="Layer_1" data-name="Layer 1" xmlns="http://www.w3.org/2000/svg" viewBox="0 0 101.7 33.05"><defs><style>.cls-1{fill:none;stroke:#fff;stroke-miterlimit:10;}.cls-2{fill:#fff;}.cls-3{fill:#c1c1c2;}</style></defs><title>PoweredByContentful_DarkBackground_MonochromeLogo</title><path class="cls-1" d="M8.33,28.53h0a5.79,5.79,0,0,1,0-8.2h0a2.26,2.26,0,1,0-3.2-3.2,10.46,10.46,0,0,0-3,7.3,10.64,10.64,0,0,0,3,7.3,2.26,2.26,0,1,0,3.2-3.2Z" transform="translate(-1.63 -2.18)"/><path class="cls-1" d="M8.33,20.33h0a5.79,5.79,0,0,1,8.2,0h0a2.26,2.26,0,0,0,3.2-3.2,10.46,10.46,0,0,0-7.3-3,10.64,10.64,0,0,0-7.3,3,2.26,2.26,0,0,0,3.2,3.2Z" transform="translate(-1.63 -2.18)"/><path class="cls-1" d="M16.53,28.53h0a5.79,5.79,0,0,1-8.2,0h0a2.26,2.26,0,1,0-3.2,3.2,10.46,10.46,0,0,0,7.3,3,10.64,10.64,0,0,0,7.3-3,2.26,2.26,0,0,0-3.2-3.2Z" transform="translate(-1.63 -2.18)"/><circle class="cls-1" cx="6.77" cy="18.73" r="2.3" transform="translate(-12.9 8.1) rotate(-45.02)"/><circle class="cls-1" cx="6.77" cy="30.12" r="2.3" transform="translate(-20.96 11.43) rotate(-45.02)"/><path class="cls-2" d="M29.93,26.53c.7-.5.7-.2,1.3.3.3.3,1,.8.5,1.2a4.51,4.51,0,0,1-3.3,1.2,4.81,4.81,0,0,1-5-4.6V24a5.2,5.2,0,0,1,1.6-3.5,4.66,4.66,0,0,1,3.4-1.1,5.66,5.66,0,0,1,1.8.3,10.91,10.91,0,0,1,1.1.6c.7.5.4.8-.2,1.3a1.38,1.38,0,0,0-.3.4c-.3.3-.4.5-.8.2a2.75,2.75,0,0,0-2.3-.5c-2.6.7-2.4,5.3.7,5.3A2.69,2.69,0,0,0,29.93,26.53Zm71.8,2.6a.86.86,0,0,1-.8-.8V18.13a.86.86,0,0,1,.8-.8h.8a.86.86,0,0,1,.8.8v10.2a.86.86,0,0,1-.8.8Zm-4.4-1.2a4,4,0,0,1-3.1,1.3c-2.6,0-3.9-2.2-3.9-4.6v-4.1a.86.86,0,0,1,.8-.8h.8a.86.86,0,0,1,.8.8v4.1a2.07,2.07,0,0,0,1.8,2.4h.4a2.35,2.35,0,0,0,2.3-2.4v-4.1a.86.86,0,0,1,.8-.8h.8a.86.86,0,0,1,.8.8v7.8a.86.86,0,0,1-.8.8h-.7c-.4,0-.7-.4-.8-.8v-.4Zm-10.2-8.2h1.6a.86.86,0,0,1,.8.8V21a.79.79,0,0,1-.8.8h-1.6v6.4a.86.86,0,0,1-.8.8h-.8a.86.86,0,0,1-.8-.8v-8.9a3.45,3.45,0,0,1,3.1-3.7h1.4a.86.86,0,0,1,.8.8v.5a.79.79,0,0,1-.8.8h-.7c-.9,0-1.3.7-1.3,1.6l-.1.4Zm-5.8,0h1.8a.86.86,0,0,1,.8.8V21a.86.86,0,0,1-.8.8h-1.8v3.9c0,.8.4,1.2,1.1,1.2h.4a.86.86,0,0,1,.8.8v.5a.86.86,0,0,1-.8.8h-1.1c-1.9-.1-2.8-1.4-2.8-3.3v-7.6a.86.86,0,0,1,.8-.8h.8a.86.86,0,0,1,.8.8Zm-26,0h1.8a.86.86,0,0,1,.8.8V21a.86.86,0,0,1-.8.8h-1.8v3.9c0,.8.4,1.2,1.1,1.2h.4a.79.79,0,0,1,.8.8h0v.5a.86.86,0,0,1-.8.8h-.5c-2.1,0-3.4-.9-3.4-3.3v-7.6a.86.86,0,0,1,.8-.8h.8a.86.86,0,0,1,.8.8Zm-10.5,1.1a4.34,4.34,0,0,1,3-1.3c2.6,0,4,2.1,4,4.6v4.1a.86.86,0,0,1-.8.8h-.8a.86.86,0,0,1-.8-.8v-4.1a2.07,2.07,0,0,0-1.8-2.4h-.4a2.35,2.35,0,0,0-2.3,2.4v4.1a.86.86,0,0,1-.8.8h-.8a.86.86,0,0,1-.8-.8v-7.8a.86.86,0,0,1,.8-.8H44c.4,0,.7.4.8.8Zm26,0a4.34,4.34,0,0,1,3-1.3c2.6,0,4,2.1,4,4.6v4.1a.86.86,0,0,1-.8.8h-.8a.86.86,0,0,1-.8-.8v-4.1a2.07,2.07,0,0,0-1.8-2.4h-.4a2.35,2.35,0,0,0-2.3,2.4v4.1a.86.86,0,0,1-.8.8h-.8a.86.86,0,0,1-.8-.8v-7.8a.86.86,0,0,1,.8-.8H70c.4,0,.7.4.8.8v.4Zm-34-1.3a4.8,4.8,0,0,0-4.9,4.7v.2a4.69,4.69,0,0,0,4.4,4.9h.5a4.69,4.69,0,0,0,4.9-4.4v-.5a4.69,4.69,0,0,0-4.4-4.9Zm23.7,5.7a2.59,2.59,0,0,0,2.7,1.9,3.92,3.92,0,0,0,1.8-.4c.1,0,.2-.1.3-.1.3-.2.6-.3.8,0l.4.4.4.4c.4.5.1.6-.3.9a6.74,6.74,0,0,1-3.4,1c-3.1,0-5.2-1.9-5.2-5a4.62,4.62,0,0,1,4.4-4.9H63c3,0,4.7,1.8,4.8,4.8,0,.8.1,1.1-.8,1.1h-6.5Zm-23.6-3.5a2.59,2.59,0,0,1,2.5,2.7h0a2.51,2.51,0,1,1-5,.4v-.4a2.48,2.48,0,0,1,2.2-2.7Zm23.6,1.5h4.8a2.1,2.1,0,0,0-2.3-1.7A2.46,2.46,0,0,0,60.53,23.23Z" transform="translate(-1.63 -2.18)"/><path class="cls-3" d="M26.4,2.3h1.29a2.5,2.5,0,0,1,.63.07,1.39,1.39,0,0,1,.49.23,1,1,0,0,1,.31.38,1.24,1.24,0,0,1,.11.54,1.2,1.2,0,0,1-.11.54,1,1,0,0,1-.32.38,1.42,1.42,0,0,1-.49.23,2.41,2.41,0,0,1-.63.08h-.81V6.85H26.4Zm.46,2h.78a1.37,1.37,0,0,0,.83-.21.72.72,0,0,0,.28-.62.69.69,0,0,0-.29-.62,1.46,1.46,0,0,0-.82-.2h-.78Z" transform="translate(-1.63 -2.18)"/><path class="cls-3" d="M36,4.58a2.49,2.49,0,0,1-.18,1,2.26,2.26,0,0,1-1.25,1.25,2.55,2.55,0,0,1-1.88,0,2.26,2.26,0,0,1-1.25-1.25,2.49,2.49,0,0,1-.18-1,2.49,2.49,0,0,1,.18-1,2.26,2.26,0,0,1,1.25-1.25,2.55,2.55,0,0,1,1.88,0,2.26,2.26,0,0,1,1.25,1.25A2.49,2.49,0,0,1,36,4.58Zm-.49,0a2.23,2.23,0,0,0-.13-.76A1.9,1.9,0,0,0,35,3.19a1.79,1.79,0,0,0-.59-.43,2,2,0,0,0-1.58,0,1.79,1.79,0,0,0-.59.43,1.89,1.89,0,0,0-.37.63,2.3,2.3,0,0,0,0,1.52A1.84,1.84,0,0,0,32.2,6a1.8,1.8,0,0,0,.59.43,2,2,0,0,0,1.58,0A1.81,1.81,0,0,0,35,6a1.85,1.85,0,0,0,.37-.63A2.23,2.23,0,0,0,35.47,4.58Z" transform="translate(-1.63 -2.18)"/><path class="cls-3" d="M39.35,6.22h0L40.5,2.3h.55l1.14,3.92h0L43.32,2.3h.49L42.46,6.85h-.54L40.78,2.94h0L39.62,6.85h-.54L37.73,2.3h.49Z" transform="translate(-1.63 -2.18)"/><path class="cls-3" d="M46.29,6.44h2.44v.41h-2.9V2.3h2.82v.41H46.29V4.27H48.5v.41H46.29Z" transform="translate(-1.63 -2.18)"/><path class="cls-3" d="M51.42,6.85H51V2.3H52.3a2.83,2.83,0,0,1,.62.06,1.4,1.4,0,0,1,.5.21,1,1,0,0,1,.32.38,1.25,1.25,0,0,1,.12.57,1.11,1.11,0,0,1-.33.81,1.17,1.17,0,0,1-.37.24,1.58,1.58,0,0,1-.46.12L54,6.85h-.57L52.19,4.72h-.77Zm0-2.53h.8a1.54,1.54,0,0,0,.86-.2.68.68,0,0,0,.3-.61.78.78,0,0,0-.08-.38.68.68,0,0,0-.23-.25,1.06,1.06,0,0,0-.36-.14,2.25,2.25,0,0,0-.47,0h-.82Z" transform="translate(-1.63 -2.18)"/><path class="cls-3" d="M56.6,6.44H59v.41h-2.9V2.3H59v.41H56.6V4.27h2.21v.41H56.6Z" transform="translate(-1.63 -2.18)"/><path class="cls-3" d="M61.27,2.3h1.51a2.71,2.71,0,0,1,.85.14,2.35,2.35,0,0,1,.77.43,2.17,2.17,0,0,1,.56.71,2.22,2.22,0,0,1,.21,1,2.21,2.21,0,0,1-.21,1,2.18,2.18,0,0,1-.56.71,2.34,2.34,0,0,1-.77.43,2.71,2.71,0,0,1-.85.14H61.27Zm.46,4.14h.92a2.3,2.3,0,0,0,.9-.16,1.88,1.88,0,0,0,.63-.42,1.72,1.72,0,0,0,.38-.59,2,2,0,0,0,0-1.38,1.72,1.72,0,0,0-.38-.59,1.88,1.88,0,0,0-.63-.42,2.31,2.31,0,0,0-.9-.16h-.92Z" transform="translate(-1.63 -2.18)"/><path class="cls-3" d="M70.4,2.3h1.36a2.58,2.58,0,0,1,.52.05,1.44,1.44,0,0,1,.47.19,1,1,0,0,1,.34.36,1.12,1.12,0,0,1,.13.57,1,1,0,0,1-.22.63,1,1,0,0,1-.59.35h0a1.2,1.2,0,0,1,.74.34,1.08,1.08,0,0,1,.29.79,1.12,1.12,0,0,1-.46.92,1.61,1.61,0,0,1-.53.25,2.57,2.57,0,0,1-.71.09H70.4Zm.46,2h.93a1.51,1.51,0,0,0,.34,0,.93.93,0,0,0,.31-.13.72.72,0,0,0,.23-.25.76.76,0,0,0,.09-.38.69.69,0,0,0-.32-.62,1,1,0,0,0-.35-.14,2,2,0,0,0-.42,0h-.8Zm0,2.16h.86a2.31,2.31,0,0,0,.48,0,1.24,1.24,0,0,0,.4-.15A.83.83,0,0,0,72.88,6a.77.77,0,0,0,.1-.41.78.78,0,0,0-.31-.67,1.45,1.45,0,0,0-.87-.22h-.95Z" transform="translate(-1.63 -2.18)"/><path class="cls-3" d="M77.38,6.85h-.46v-2L75.21,2.3h.58l1.37,2.21L78.55,2.3h.54l-1.7,2.59Z" transform="translate(-1.63 -2.18)"/><rect class="cls-3" x="83.16" y="2.17" width="9.42" height="0.43"/><rect class="cls-3" x="9.49" y="2.17" width="9.42" height="0.43"/></svg>